<?xml version="1.0" encoding="UTF-8" standalone="no"?>
<!-- Created with Inkscape (http://www.inkscape.org/) -->

<svg
   xmlns:dc="http://purl.org/dc/elements/1.1/"
   xmlns:cc="http://creativecommons.org/ns#"
   xmlns:rdf="http://www.w3.org/1999/02/22-rdf-syntax-ns#"
   xmlns:svg="http://www.w3.org/2000/svg"
   xmlns="http://www.w3.org/2000/svg"
   xmlns:xlink="http://www.w3.org/1999/xlink"
   xmlns:sodipodi="http://sodipodi.sourceforge.net/DTD/sodipodi-0.dtd"
   xmlns:inkscape="http://www.inkscape.org/namespaces/inkscape"
   version="1.0"
   width="86.041176"
   height="74.527939"
   id="svg3681"
   sodipodi:docname="Commerzbank_(2009).svg"
   inkscape:version="0.92.5 (2060ec1f9f, 2020-04-08)">
  <metadata
     id="metadata37">
    <rdf:RDF>
      <cc:Work
         rdf:about="">
        <dc:format>image/svg+xml</dc:format>
        <dc:type
           rdf:resource="http://purl.org/dc/dcmitype/StillImage" />
      </cc:Work>
    </rdf:RDF>
  </metadata>
  <sodipodi:namedview
     pagecolor="#ffffff"
     bordercolor="#666666"
     borderopacity="1"
     objecttolerance="10"
     gridtolerance="10"
     guidetolerance="10"
     inkscape:pageopacity="0"
     inkscape:pageshadow="2"
     inkscape:window-width="640"
     inkscape:window-height="480"
     id="namedview35"
     showgrid="false"
     inkscape:zoom="0.67235297"
     inkscape:cx="-197.42339"
     inkscape:cy="37.263937"
     inkscape:window-x="0"
     inkscape:window-y="27"
     inkscape:window-maximized="0"
     inkscape:current-layer="g3651" />
  <defs
     id="defs3683">
    <radialGradient
       cx="0"
       cy="0"
       r="1"
       fx="0"
       fy="0"
       id="radialGradient263"
       gradientUnits="userSpaceOnUse"
       gradientTransform="matrix(24.979874,0,0,-24.979874,568.24237,786.90625)"
       spreadMethod="pad">
      <stop
         id="stop265"
         style="stop-color:#fedf33;stop-opacity:1"
         offset="0" />
      <stop
         id="stop267"
         style="stop-color:#fbb809;stop-opacity:1"
         offset="0.44000199" />
      <stop
         id="stop269"
         style="stop-color:#ee960d;stop-opacity:1"
         offset="0.89999402" />
      <stop
         id="stop271"
         style="stop-color:#d87301;stop-opacity:1"
         offset="1" />
    </radialGradient>
    <radialGradient
       cx="0"
       cy="0"
       r="1"
       fx="0"
       fy="0"
       id="radialGradient3640"
       xlink:href="#radialGradient263"
       gradientUnits="userSpaceOnUse"
       gradientTransform="matrix(24.979874,0,0,-24.979874,568.24237,786.90625)"
       spreadMethod="pad" />
    <radialGradient
       cx="0"
       cy="0"
       r="1"
       fx="0"
       fy="0"
       id="radialGradient239"
       gradientUnits="userSpaceOnUse"
       gradientTransform="matrix(24.910126,0,0,-24.910126,543.59962,793.65115)"
       spreadMethod="pad">
      <stop
         id="stop241"
         style="stop-color:#fedf33;stop-opacity:1"
         offset="0" />
      <stop
         id="stop243"
         style="stop-color:#fbb809;stop-opacity:1"
         offset="0.44000199" />
      <stop
         id="stop245"
         style="stop-color:#ee960d;stop-opacity:1"
         offset="0.89999402" />
      <stop
         id="stop247"
         style="stop-color:#e17a10;stop-opacity:1"
         offset="1" />
    </radialGradient>
    <radialGradient
       cx="0"
       cy="0"
       r="1"
       fx="0"
       fy="0"
       id="radialGradient3643"
       xlink:href="#radialGradient239"
       gradientUnits="userSpaceOnUse"
       gradientTransform="matrix(24.910126,0,0,-24.910126,543.59962,793.65115)"
       spreadMethod="pad" />
    <radialGradient
       cx="0"
       cy="0"
       r="1"
       fx="0"
       fy="0"
       id="radialGradient215"
       gradientUnits="userSpaceOnUse"
       gradientTransform="matrix(24.920029,0,0,-24.920029,561.75633,811.72659)"
       spreadMethod="pad">
      <stop
         id="stop217"
         style="stop-color:#fedf33;stop-opacity:1"
         offset="0" />
      <stop
         id="stop219"
         style="stop-color:#fbb809;stop-opacity:1"
         offset="0.44000199" />
      <stop
         id="stop221"
         style="stop-color:#ee960d;stop-opacity:1"
         offset="0.89999402" />
      <stop
         id="stop223"
         style="stop-color:#e17a10;stop-opacity:1"
         offset="1" />
    </radialGradient>
    <radialGradient
       cx="0"
       cy="0"
       r="1"
       fx="0"
       fy="0"
       id="radialGradient3646"
       xlink:href="#radialGradient215"
       gradientUnits="userSpaceOnUse"
       gradientTransform="matrix(24.920029,0,0,-24.920029,561.75633,811.72659)"
       spreadMethod="pad" />
    <radialGradient
       cx="0"
       cy="0"
       r="1"
       fx="0"
       fy="0"
       id="radialGradient191"
       gradientUnits="userSpaceOnUse"
       gradientTransform="matrix(24.901733,0,0,-24.901718,568.25887,786.98686)"
       spreadMethod="pad">
      <stop
         id="stop193"
         style="stop-color:#fedf33;stop-opacity:1"
         offset="0" />
      <stop
         id="stop195"
         style="stop-color:#fbb809;stop-opacity:1"
         offset="0.44000199" />
      <stop
         id="stop197"
         style="stop-color:#ee960d;stop-opacity:1"
         offset="0.89999402" />
      <stop
         id="stop199"
         style="stop-color:#e17a10;stop-opacity:1"
         offset="1" />
    </radialGradient>
    <radialGradient
       cx="0"
       cy="0"
       r="1"
       fx="0"
       fy="0"
       id="radialGradient3649"
       xlink:href="#radialGradient191"
       gradientUnits="userSpaceOnUse"
       gradientTransform="matrix(24.901733,0,0,-24.901718,568.25887,786.98686)"
       spreadMethod="pad" />
  </defs>
  <g
     transform="translate(-1042.878,-1013.0115)"
     id="layer1">
    <g
       transform="matrix(2.6667598,0,0,-2.6667598,-401.84366,3177.6898)"
       id="g3651">
      <path
         d="m 562.198,811.726 c -0.585,0 -2.324,0 -4.345,-2.454 v 0 c 0.026,-0.031 0.052,-0.062 0.079,-0.094 v 0 c 0.519,0.607 1.17,1.228 1.869,1.68 v 0 c 0.646,0.416 1.395,0.694 2.015,0.762 v 0 c 0.452,0.05 1.947,0.031 3.649,0.031 v 0 c 0.009,0 0.014,-0.004 0.018,-0.009 v 0 l -0.044,0.074 c -0.003,0.007 -0.009,0.01 -0.016,0.01 v 0 z"
         id="path201"
         style="fill:url(#radialGradient3649);stroke:none"
         inkscape:connector-curvature="0" />
      <path
         d="m 550.345,811.726 c -0.006,0 -0.013,-0.002 -0.017,-0.009 v 0 l -6.33,-10.964 -1.985,-3.438 -0.23,-0.399 -0.03,-0.051 c -0.002,-0.004 -0.002,-0.011 0.002,-0.019 v 0 l 6.03,-10.444 v 0.043 c -0.131,0.24 -0.225,0.425 -0.275,0.541 v 0 c -0.252,0.571 -0.395,1.361 -0.358,2.129 v 0 c 0.102,2.022 1.177,4.017 1.718,4.953 v 0 c 1.268,2.196 3.719,6.443 3.719,6.443 v 0 c 0,0 2.452,4.247 3.72,6.444 v 0 c 0.54,0.935 1.731,2.864 3.432,3.963 v 0 c 0.645,0.417 1.403,0.687 2.021,0.755 v 0 c 0.453,0.051 1.957,0.053 3.661,0.053 v 0 z"
         id="path225"
         style="fill:url(#radialGradient3646);stroke:none"
         inkscape:connector-curvature="0" />
      <path
         d="m 541.805,796.763 c 0.095,-0.166 0.189,-0.33 0.282,-0.49 v 0 z m 30.332,-3.06 c -0.369,-0.502 -0.981,-1.023 -1.665,-1.373 v 0 c -1.803,-0.923 -4.067,-0.99 -5.147,-0.99 v 0 h -7.441 -7.44 c -1.08,0 -3.347,0.067 -5.147,0.99 v 0 c -0.685,0.35 -1.297,0.871 -1.666,1.373 v 0 c -0.234,0.319 -0.834,1.341 -1.544,2.57 v 0 l 1.513,-2.622 5.694,-9.863 c 0.003,-0.005 0.01,-0.009 0.016,-0.009 v 0 h 17.149 c 0.005,0 0.012,0.005 0.015,0.01 v 0 l 7.472,12.941 c -0.824,-1.427 -1.546,-2.67 -1.809,-3.027"
         id="path249"
         style="fill:url(#radialGradient3643);stroke:none"
         inkscape:connector-curvature="0" />
      <path
         d="m 561.762,811.673 c -0.618,-0.068 -1.376,-0.338 -2.021,-0.755 v 0 c -0.712,-0.46 -1.334,-1.065 -1.857,-1.682 v 0 c 0.727,-0.857 1.261,-1.736 1.575,-2.281 v 0 c 1.268,-2.197 3.721,-6.444 3.721,-6.444 v 0 c 0,0 2.451,-4.247 3.72,-6.443 v 0 c 0.539,-0.936 1.615,-2.931 1.715,-4.953 v 0 c 0.038,-0.768 -0.107,-1.558 -0.356,-2.129 v 0 c -0.175,-0.399 -0.87,-1.612 -1.677,-3.01 v 0 l 7.433,12.873 c 0,10e-4 10e-4,0.002 10e-4,0.004 v 0 0.008 c 0,0.002 -10e-4,0.004 -0.002,0.005 v 0 l -8.575,14.85 c -0.003,0.007 -0.009,0.01 -0.016,0.01 v 0 c -1.704,0 -3.208,-0.002 -3.661,-0.053"
         id="path273"
         style="fill:url(#radialGradient3640);stroke:none"
         inkscape:connector-curvature="0" />
    </g>
  </g>
</svg>
